<svg width="84" height="3" viewBox="0 0 84 3" fill="none" xmlns="http://www.w3.org/2000/svg">
<path d="M0.624001 0.847998C1.776 0.911999 8.112 1.008 19.632 1.136C31.216 1.264 39.088 1.328 43.248 1.328C47.088 1.328 54.384 1.264 65.136 1.136C75.952 1.008 81.968 0.911999 83.184 0.847998C83.504 0.975998 83.664 1.296 83.664 1.808C83.728 2.256 83.6 2.64 83.28 2.96C82 2.832 76.56 2.704 66.96 2.576C57.36 2.448 49.456 2.384 43.248 2.384C38.512 2.384 30.512 2.448 19.248 2.576C8.048 2.704 1.872 2.832 0.72 2.96C0.4 2.832 0.24 2.512 0.24 2C0.24 1.424 0.368001 1.04 0.624001 0.847998Z" fill="#D0A049"/>
</svg>
